<?xml version="1.0" encoding="UTF-8" standalone="no"?>
<!-- Created with Inkscape (http://www.inkscape.org/) -->
<svg
   xmlns:dc="http://purl.org/dc/elements/1.1/"
   xmlns:cc="http://creativecommons.org/ns#"
   xmlns:rdf="http://www.w3.org/1999/02/22-rdf-syntax-ns#"
   xmlns:svg="http://www.w3.org/2000/svg"
   xmlns="http://www.w3.org/2000/svg"
   xmlns:xlink="http://www.w3.org/1999/xlink"
   xmlns:sodipodi="http://sodipodi.sourceforge.net/DTD/sodipodi-0.dtd"
   xmlns:inkscape="http://www.inkscape.org/namespaces/inkscape"
   width="850"
   height="850"
   id="svg2"
   sodipodi:version="0.32"
   inkscape:version="0.46"
   sodipodi:docname="scythe.svg"
   inkscape:output_extension="org.inkscape.output.svg.inkscape"
   version="1.0">
  <defs
     id="defs4">
    <linearGradient
       id="linearGradient3336">
      <stop
         style="stop-color:#ffffff;stop-opacity:0.58823532;"
         offset="0"
         id="stop3338" />
      <stop
         style="stop-color:#ffffff;stop-opacity:0;"
         offset="1"
         id="stop3340" />
    </linearGradient>
    <radialGradient
       inkscape:collect="always"
       xlink:href="#linearGradient3336"
       id="radialGradient9610"
       gradientUnits="userSpaceOnUse"
       gradientTransform="matrix(1,0,0,11.952381,40.837564,-3943.1848)"
       spreadMethod="pad"
       cx="-334.28473"
       cy="363.10983"
       fx="-334.28473"
       fy="363.10983"
       r="3.7123106" />
  </defs>
  <sodipodi:namedview
     id="base"
     pagecolor="#ffffff"
     bordercolor="#666666"
     borderopacity="1.0"
     gridtolerance="10000"
     guidetolerance="10"
     objecttolerance="10"
     inkscape:pageopacity="0.0"
     inkscape:pageshadow="2"
     inkscape:zoom="0.5"
     inkscape:cx="683.76853"
     inkscape:cy="369.70689"
     inkscape:document-units="px"
     inkscape:current-layer="layer1"
     showgrid="false"
     inkscape:window-width="1280"
     inkscape:window-height="968"
     inkscape:window-x="-4"
     inkscape:window-y="-4"
     showguides="true"
     inkscape:guide-bbox="true" />
  <metadata
     id="metadata7">
    <rdf:RDF>
      <cc:Work
         rdf:about="">
        <dc:format>image/svg+xml</dc:format>
        <dc:type
           rdf:resource="http://purl.org/dc/dcmitype/StillImage" />
      </cc:Work>
    </rdf:RDF>
  </metadata>
  <g
     inkscape:label="Layer 1"
     inkscape:groupmode="layer"
     id="layer1"
     transform="translate(737.32265,189.94365)">
    <g
       id="g14167"
       transform="matrix(0.976303,0,0,0.976303,-7.4166229,15.345556)">
      <g
         transform="matrix(2.0071862,0,0,2.0071862,360.64371,-217.70082)"
         id="g9563">
        <path
           style="fill:#000000;fill-opacity:0.58823529;fill-rule:evenodd;stroke:none;stroke-width:1.17646933;stroke-linecap:round;stroke-linejoin:miter;stroke-miterlimit:4;stroke-dasharray:none;stroke-dashoffset:0;stroke-opacity:1"
           d="M -178.50188,333.49915 C -228.69102,326.48705 -327.91982,315.09861 -401.7215,324.56794 C -401.84307,324.5834 -401.9673,324.59778 -402.08874,324.61334 C -403.1387,324.74918 -404.18598,324.89252 -405.22537,325.03691 C -403.99324,324.97787 -402.76789,324.92352 -401.52723,324.87008 C -400.28655,324.81664 -399.02976,324.7668 -397.78088,324.71894 C -394.03419,324.57533 -390.26372,324.45264 -386.44853,324.35845 C -385.18547,324.32727 -383.89961,324.29657 -382.62964,324.27073 C -381.35094,324.24475 -380.06167,324.22623 -378.77629,324.20562 C -377.49094,324.18502 -376.19738,324.16707 -374.90567,324.15181 C -372.30702,324.12108 -369.71795,324.09876 -367.09546,324.0894 C -361.88148,324.07059 -356.64001,324.09615 -351.34668,324.15992 C -348.6999,324.19178 -346.05734,324.23392 -343.39444,324.28595 C -340.74174,324.33782 -338.06682,324.39942 -335.4006,324.47101 C -331.3858,324.57884 -327.3291,324.70686 -323.29064,324.85851 C -313.8787,325.21214 -304.39563,325.68228 -294.93122,326.26444 C -293.57755,326.34771 -292.20258,326.43629 -290.84907,326.52407 C -286.7996,326.78682 -282.75102,327.07401 -278.70866,327.37651 C -277.35754,327.47762 -275.99649,327.58094 -274.64678,327.68641 C -270.60877,328.00206 -266.55608,328.34004 -262.53629,328.69406 C -261.1927,328.81238 -259.83564,328.9317 -258.49473,329.05423 C -254.48303,329.42092 -250.45832,329.80465 -246.47602,330.20831 C -243.81387,330.47815 -241.15136,330.75961 -238.50546,331.04557 C -230.57903,331.90247 -222.71282,332.83479 -214.97676,333.83084 C -212.39456,334.16333 -209.81177,334.50682 -207.25577,334.85419 C -189.36464,337.28602 -172.14126,340.0783 -156.02123,343.17808 C -149.6127,341.9416 -150.11205,342.17252 -143.34989,341.66093 C -143.10032,341.55878 -142.86246,341.46155 -142.60986,341.36719 C -142.49635,341.94837 -142.87802,342.55183 -144.02695,343.20373 C -145.0281,343.01373 -146.01459,342.87652 -146.9009,342.81415 C -146.97223,342.80886 -147.04428,342.80605 -147.11392,342.80168 C -147.22328,342.79523 -147.32881,342.78711 -147.43348,342.78296 C -147.95164,342.76048 -148.41991,342.76575 -148.78319,342.80427 C -148.94039,342.82082 -149.07177,342.84196 -149.1915,342.87043 C -149.26162,342.88709 -149.32284,342.90314 -149.37663,342.92391 C -149.43676,342.94542 -149.47326,342.96796 -149.51359,342.99308 C -149.66764,343.04135 -151.5277,343.62478 -154.40515,344.52323 C -161.26043,346.6664 -180.7383,352.74435 -190.03544,355.51576 C -201.08403,358.80927 -216.53169,366.13744 -216.53168,366.13744 L -270.35094,387.53823 C -284.46734,386.61757 -298.80718,386.00799 -312.99224,385.561 L -313.30918,387.02196 C -300.35446,387.93092 -287.24573,388.58613 -274.14691,389.05535 L -312.90195,404.46813 L -335.24568,412.93229 L -334.4823,413.06705 L -337.02444,414.07093 C -349.99711,411.00716 -364.06663,408.19843 -378.41276,405.55683 L -382.63635,406.80961 C -368.47923,410.26043 -353.05864,413.42044 -337.0512,416.32595 C -322.94829,419.78573 -307.38363,422.92078 -291.47975,425.84921 L -287.25617,424.59642 C -299.96966,421.49749 -313.6966,418.63239 -327.95823,415.97585 C -322.44278,413.76632 -209.51215,368.52498 -209.32548,367.76105 C -209.13423,366.97827 -191.65988,360.44476 -186.80223,358.90601 C -182.55419,357.56036 -153.81009,349.01374 -145.76704,346.62438 C -142.52514,345.66077 -140.53931,345.07154 -140.4773,345.05321 C -140.4427,345.0465 -140.39243,345.04187 -140.36064,345.03432 C -140.25157,345.00838 -140.17556,344.97988 -140.10703,344.94624 C -134.37136,343.32793 -133.29327,341.02355 -140.63383,339.38842 C -140.64463,339.38601 -140.64023,339.37952 -140.65108,339.37711 C -141.67139,339.02305 -143.71462,338.62808 -147.2709,338.13778 C -150.11594,337.74555 -161.50662,335.87362 -178.50188,333.49915 z"
           id="path9364" />
        <g
           id="g9555">
          <path
             transform="matrix(0.9491537,0.2960109,-0.3387549,1.0862114,-0.3172114,86.62999)"
             d="M -288.01272,63.044033 A 5.4365859,2.5046768 0 1 1 -298.8859,63.044033 A 5.4365859,2.5046768 0 1 1 -288.01272,63.044033 z"
             sodipodi:ry="2.5046768"
             sodipodi:rx="5.4365859"
             sodipodi:cy="63.044033"
             sodipodi:cx="-293.44931"
             id="path3281"
             style="fill:#97816b;fill-opacity:1;fill-rule:nonzero;stroke:#000000;stroke-width:1;stroke-linecap:butt;stroke-linejoin:miter;stroke-miterlimit:4;stroke-dasharray:none;stroke-dashoffset:0;stroke-opacity:1"
             sodipodi:type="arc" />
          <path
             id="path3260"
             d="M -305.4375,67.21875 C -305.62571,68.227305 -314.31069,114.69761 -317.84375,131.65625 C -321.41518,148.7991 -322.15626,182.375 -322.15625,182.375 L -342.34375,411.71875 C -357.35928,407.39613 -372.84166,404.52161 -388.28125,402.375 L -389.65625,408.90625 C -373.1022,414.00215 -356.0057,417.44045 -338.84375,419.6875 C -322.31845,424.84214 -305.1473,428.12033 -288.03125,430.5 L -286.65625,423.96875 C -301.52227,419.39248 -316.82247,416.14782 -332.21875,413.90625 C -331.31876,403.35387 -312.89188,187.28834 -313.9375,184.5 C -315.00893,181.64286 -311.42857,149.85714 -310,142 C -308.57143,134.14286 -295.0625,69.84375 -295.0625,69.84375 L -305.4375,67.21875 z"
             style="fill:#d0c2af;fill-opacity:1;fill-rule:evenodd;stroke:#000000;stroke-width:1.17646933;stroke-linecap:round;stroke-linejoin:miter;stroke-miterlimit:4;stroke-dasharray:none;stroke-dashoffset:0;stroke-opacity:1" />
          <path
             sodipodi:nodetypes="cccc"
             inkscape:transform-center-y="7.547796"
             inkscape:transform-center-x="19.880995"
             id="rect3239"
             d="M -324.60607,288.75463 C -337.90189,295.05302 -351.71392,300.45393 -365.88744,304.43704 L -367.90399,299.12877 C -354.57989,292.94629 -340.80267,287.37425 -326.62262,283.44636"
             style="fill:#d0c2af;fill-opacity:1;fill-rule:evenodd;stroke:#000000;stroke-width:1;stroke-linecap:round;stroke-linejoin:miter;stroke-miterlimit:4;stroke-dasharray:none;stroke-dashoffset:0;stroke-opacity:1" />
          <rect
             transform="matrix(0.9942413,0.1071646,-0.1071646,0.9942413,0,0)"
             y="352.47134"
             x="-297.15948"
             height="88.741898"
             width="7.4246211"
             id="rect3334"
             style="opacity:1;fill:url(#radialGradient9610);fill-opacity:1;fill-rule:nonzero;stroke:none;stroke-width:1.12199998;stroke-linecap:round;stroke-linejoin:miter;stroke-miterlimit:4;stroke-dasharray:none;stroke-dashoffset:0;stroke-opacity:1" />
        </g>
        <g
           id="g9359">
          <path
             id="path9349"
             d="M -343.125,48.21875 C -394.46058,48.579504 -492.76749,58.322409 -535.15625,131.71875 C -478.86275,78.961851 -390.52855,57.97693 -310.28125,71.125 C -307.15752,63.558828 -307.19078,64.623161 -302.65625,59.4375 C -302.61892,58.952351 -302.58314,58.490449 -302.53125,58.03125 C -301.53424,60.024789 -300.89298,62.344558 -300.78125,65.21875 C -303.05078,64.864106 -304.98639,65.378903 -305.375,66.625 C -305.79803,69.44119 -306.37936,72.257026 -306.90625,75.0625 C -306.90624,75.062502 -305.125,75.5625 -305.125,75.5625 C -305.12499,75.562504 -305.60749,78.846993 -306.21875,82.125 C -306.74643,84.954696 -306.60333,87.711137 -304.59375,88.25 C -302.58417,88.788866 -300.41545,85.999715 -299.5625,82.9375 C -298.79397,80.178405 -298.125,77.6875 -298.125,77.6875 C -298.12499,77.687498 -296.8125,78.15625 -296.8125,78.15625 C -292.80763,63.875659 -294.30735,51.659875 -311.25,48.96875 C -314.10634,49.007422 -326.01314,48.098499 -343.125,48.21875 z"
             style="fill:#999999;fill-opacity:1;fill-rule:evenodd;stroke:none;stroke-width:1.17646933;stroke-linecap:round;stroke-linejoin:miter;stroke-miterlimit:4;stroke-dasharray:none;stroke-dashoffset:0;stroke-opacity:1"
             sodipodi:nodetypes="cccccccccssscccc" />
          <path
             sodipodi:nodetypes="ccccc"
             id="path3205"
             d="M -310.2863,71.114241 C -310.2863,71.114241 -310.10638,68.276188 -310.10638,68.276188 C -388.68695,55.4012 -475.02009,75.301286 -531.43091,125.66981 C -532.71492,127.64232 -533.96827,129.65415 -535.16536,131.72693 C -478.87186,78.970024 -390.53359,57.966169 -310.2863,71.114241 z"
             style="fill:#ffffff;fill-opacity:0.58823529;fill-rule:nonzero;stroke:none;stroke-width:1.12199998;stroke-linecap:butt;stroke-linejoin:miter;stroke-miterlimit:4;stroke-dasharray:none;stroke-dashoffset:0;stroke-opacity:1" />
          <path
             d="M -302.28816,84.774933 A 1.3258252,1.3258252 0 1 1 -304.93981,84.774933 A 1.3258252,1.3258252 0 1 1 -302.28816,84.774933 z"
             sodipodi:ry="1.3258252"
             sodipodi:rx="1.3258252"
             sodipodi:cy="84.774933"
             sodipodi:cx="-303.61398"
             id="path9357"
             style="opacity:1;fill:#4d4d4d;fill-opacity:1;fill-rule:evenodd;stroke:#000000;stroke-width:1;stroke-linecap:round;stroke-linejoin:miter;stroke-miterlimit:4;stroke-dasharray:none;stroke-dashoffset:0;stroke-opacity:1"
             sodipodi:type="arc" />
          <path
             style="fill:none;fill-opacity:1;fill-rule:evenodd;stroke:#000000;stroke-width:1.17646933;stroke-linecap:round;stroke-linejoin:miter;stroke-miterlimit:4;stroke-dasharray:none;stroke-dashoffset:0;stroke-opacity:1"
             d="M -343.125,48.21875 C -394.46058,48.579504 -492.76749,58.322409 -535.15625,131.71875 C -478.86275,78.961851 -390.52855,57.97693 -310.28125,71.125 C -307.15752,63.558828 -307.19078,64.623161 -302.65625,59.4375 C -302.61892,58.952351 -302.58314,58.490449 -302.53125,58.03125 C -301.53424,60.024789 -300.89298,62.344558 -300.78125,65.21875 C -303.05078,64.864106 -304.98639,65.378903 -305.375,66.625 C -305.79803,69.44119 -306.37936,72.257026 -306.90625,75.0625 C -306.90624,75.062502 -305.125,75.5625 -305.125,75.5625 C -305.12499,75.562504 -305.60749,78.846993 -306.21875,82.125 C -306.74643,84.954696 -306.60333,87.711137 -304.59375,88.25 C -302.58417,88.788866 -300.41545,85.999715 -299.5625,82.9375 C -298.79397,80.178405 -298.125,77.6875 -298.125,77.6875 C -298.12499,77.687498 -296.8125,78.15625 -296.8125,78.15625 C -292.30812,65.241049 -295.90478,49.629697 -311.25,48.96875 C -314.10634,49.007422 -326.01314,48.098499 -343.125,48.21875 z"
             id="path9433"
             sodipodi:nodetypes="cccccccccssscccc" />
        </g>
      </g>
      <g
         id="g14134">
        <g
           id="g9392"
           transform="matrix(2.0071862,0,0,2.0071862,305.77358,90.55335)">
          <path
             d="M -465.5,9.362174 A 14,14 0 1 1 -493.5,9.362174 A 14,14 0 1 1 -465.5,9.362174 z"
             sodipodi:ry="14"
             sodipodi:rx="14"
             sodipodi:cy="9.362174"
             sodipodi:cx="-479.5"
             id="path9388"
             style="opacity:1;fill:#ffffff;fill-opacity:1;fill-rule:evenodd;stroke:#000000;stroke-width:2;stroke-linecap:round;stroke-linejoin:miter;stroke-miterlimit:4;stroke-dasharray:none;stroke-dashoffset:0;stroke-opacity:1"
             sodipodi:type="arc" />
          <path
             style="font-size:24px;font-style:normal;font-weight:normal;fill:#000000;fill-opacity:1;stroke:none;stroke-width:1px;stroke-linecap:butt;stroke-linejoin:miter;stroke-opacity:1;font-family:Bitstream Vera Sans"
             d="M -477.58594,17.987175 L -479.69531,17.987175 L -479.69531,4.5457687 C -480.20313,5.0301567 -480.86915,5.5145312 -481.69336,5.9988937 C -482.51758,6.4832802 -483.25782,6.8465611 -483.91406,7.0887375 L -483.91406,5.049675 C -482.73438,4.495001 -481.70313,3.8231267 -480.82031,3.03405 C -479.93751,2.2450032 -479.31251,1.479379 -478.94531,0.73717499 L -477.58594,0.73717499 L -477.58594,17.987175 z"
             id="text9384" />
        </g>
        <g
           transform="matrix(2.0071862,0,0,2.0071862,434.16662,-152.93089)"
           id="g9397">
          <path
             sodipodi:type="arc"
             style="opacity:1;fill:#ffffff;fill-opacity:1;fill-rule:evenodd;stroke:#000000;stroke-width:2;stroke-linecap:round;stroke-linejoin:miter;stroke-miterlimit:4;stroke-dasharray:none;stroke-dashoffset:0;stroke-opacity:1"
             id="path9399"
             sodipodi:cx="-479.5"
             sodipodi:cy="9.362174"
             sodipodi:rx="14"
             sodipodi:ry="14"
             d="M -465.5,9.362174 A 14,14 0 1 1 -493.5,9.362174 A 14,14 0 1 1 -465.5,9.362174 z" />
          <path
             style="font-size:24px;font-style:normal;font-weight:normal;fill:#000000;fill-opacity:1;stroke:none;stroke-width:1px;stroke-linecap:butt;stroke-linejoin:miter;stroke-opacity:1;font-family:Bitstream Vera Sans"
             d="M -474.07031,15.959831 L -474.07031,17.987175 L -485.42578,17.987175 C -485.44141,17.479363 -485.35938,16.991082 -485.17969,16.522331 C -484.89063,15.748896 -484.42774,14.987178 -483.79102,14.237175 C -483.1543,13.487179 -482.23438,12.619993 -481.03125,11.635612 C -479.16407,10.10437 -477.90235,8.891481 -477.24609,7.9969406 C -476.58985,7.1024202 -476.26173,6.256718 -476.26172,5.4598312 C -476.26173,4.6239071 -476.56056,3.9188297 -477.1582,3.3445969 C -477.75587,2.7703933 -478.53516,2.4832842 -479.49609,2.4832687 C -480.51172,2.4832842 -481.32422,2.7879714 -481.93359,3.3973312 C -482.54297,4.0067202 -482.85157,4.8504694 -482.85938,5.9285812 L -485.02734,5.705925 C -484.87891,4.0887514 -484.32031,2.8563307 -483.35156,2.0086594 C -482.38282,1.1610199 -481.08204,0.73719224 -479.44922,0.73717499 C -477.80079,0.73719224 -476.4961,1.194223 -475.53516,2.1082687 C -474.57423,3.0223462 -474.09376,4.1551576 -474.09375,5.5067062 C -474.09376,6.194218 -474.23439,6.8699986 -474.51562,7.53405 C -474.79689,8.1981223 -475.26368,8.8973403 -475.91602,9.6317062 C -476.56837,10.366089 -477.65235,11.3739 -479.16797,12.655144 C -480.4336,13.717648 -481.2461,14.43835 -481.60547,14.817253 C -481.96485,15.196162 -482.26172,15.577021 -482.49609,15.959831 L -474.07031,15.959831 z"
             id="text9401" />
        </g>
        <g
           id="g9405"
           transform="matrix(2.0071862,0,0,2.0071862,623.98782,-45.1422)">
          <path
             d="M -465.5,9.362174 A 14,14 0 1 1 -493.5,9.362174 A 14,14 0 1 1 -465.5,9.362174 z"
             sodipodi:ry="14"
             sodipodi:rx="14"
             sodipodi:cy="9.362174"
             sodipodi:cx="-479.5"
             id="path9407"
             style="opacity:1;fill:#ffffff;fill-opacity:1;fill-rule:evenodd;stroke:#000000;stroke-width:2;stroke-linecap:round;stroke-linejoin:miter;stroke-miterlimit:4;stroke-dasharray:none;stroke-dashoffset:0;stroke-opacity:1"
             sodipodi:type="arc" />
          <path
             style="font-size:24px;font-style:normal;font-weight:normal;fill:#000000;fill-opacity:1;stroke:none;stroke-width:1px;stroke-linecap:butt;stroke-linejoin:miter;stroke-opacity:1;font-family:Bitstream Vera Sans"
             d="M -485.14453,13.452019 L -483.03516,13.170769 C -482.79297,14.366085 -482.38086,15.227412 -481.79883,15.754753 C -481.2168,16.282099 -480.50782,16.54577 -479.67188,16.545769 C -478.67969,16.54577 -477.84181,16.202021 -477.1582,15.514519 C -476.47462,14.827022 -476.13282,13.97546 -476.13281,12.959831 C -476.13282,11.991087 -476.44923,11.19226 -477.08203,10.563347 C -477.71485,9.9344487 -478.51954,9.6199959 -479.49609,9.6199875 C -479.89454,9.6199959 -480.39063,9.6981208 -480.98438,9.8543625 L -480.75,8.0028 C -480.60938,8.018435 -480.4961,8.0262474 -480.41016,8.0262375 C -479.51173,8.0262474 -478.70313,7.7918727 -477.98438,7.3231125 C -477.26563,6.8543736 -476.90626,6.1317181 -476.90625,5.1551437 C -476.90626,4.3817198 -477.16798,3.7410955 -477.69141,3.2332687 C -478.21485,2.7254715 -478.89063,2.4715655 -479.71875,2.47155 C -480.53907,2.4715655 -481.22266,2.7293777 -481.76953,3.2449875 C -482.31641,3.7606267 -482.66797,4.5340634 -482.82422,5.5653 L -484.93359,5.1903 C -484.67578,3.7762517 -484.08985,2.6805497 -483.17578,1.9031906 C -482.26172,1.1258637 -481.12501,0.73719224 -479.76562,0.73717499 C -478.82813,0.73719224 -477.96485,0.93836391 -477.17578,1.3406906 C -476.38673,1.7430506 -475.78321,2.2918782 -475.36523,2.987175 C -474.94728,3.6825018 -474.73829,4.4207823 -474.73828,5.2020187 C -474.73829,5.9442183 -474.93751,6.6199989 -475.33594,7.2293625 C -475.73439,7.8387476 -476.32423,8.3231222 -477.10547,8.6824875 C -476.08985,8.9168716 -475.30079,9.4031992 -474.73828,10.141472 C -474.17579,10.87976 -473.89454,11.803587 -473.89453,12.912956 C -473.89454,14.41296 -474.44142,15.684443 -475.53516,16.727409 C -476.62892,17.770378 -478.01173,18.291862 -479.68359,18.291862 C -481.19141,18.291862 -482.44336,17.842644 -483.43945,16.944206 C -484.43555,16.045771 -485.00391,14.881709 -485.14453,13.452019 L -485.14453,13.452019 z"
             id="text9409" />
        </g>
        <g
           transform="matrix(2.0071862,0,0,2.0071862,766.55187,-185.09864)"
           id="g9413">
          <path
             sodipodi:type="arc"
             style="opacity:1;fill:#ffffff;fill-opacity:1;fill-rule:evenodd;stroke:#000000;stroke-width:2;stroke-linecap:round;stroke-linejoin:miter;stroke-miterlimit:4;stroke-dasharray:none;stroke-dashoffset:0;stroke-opacity:1"
             id="path9415"
             sodipodi:cx="-479.5"
             sodipodi:cy="9.362174"
             sodipodi:rx="14"
             sodipodi:ry="14"
             d="M -465.5,9.362174 A 14,14 0 1 1 -493.5,9.362174 A 14,14 0 1 1 -465.5,9.362174 z" />
          <path
             style="font-size:24px;font-style:normal;font-weight:normal;fill:#000000;fill-opacity:1;stroke:none;stroke-width:1px;stroke-linecap:butt;stroke-linejoin:miter;stroke-opacity:1;font-family:Bitstream Vera Sans"
             d="M -478.39453,17.987175 L -478.39453,13.873894 L -485.84766,13.873894 L -485.84766,11.9403 L -478.00781,0.80748749 L -476.28516,0.80748749 L -476.28516,11.9403 L -473.96484,11.9403 L -473.96484,13.873894 L -476.28516,13.873894 L -476.28516,17.987175 L -478.39453,17.987175 z M -478.39453,11.9403 L -478.39453,4.1942062 L -483.77344,11.9403 L -478.39453,11.9403 z"
             id="text9417" />
        </g>
        <g
           id="g9421"
           transform="matrix(2.0071862,0,0,2.0071862,813.68701,-76.880956)">
          <path
             d="M -465.5,9.362174 A 14,14 0 1 1 -493.5,9.362174 A 14,14 0 1 1 -465.5,9.362174 z"
             sodipodi:ry="14"
             sodipodi:rx="14"
             sodipodi:cy="9.362174"
             sodipodi:cx="-479.5"
             id="path9423"
             style="opacity:1;fill:#ffffff;fill-opacity:1;fill-rule:evenodd;stroke:#000000;stroke-width:2;stroke-linecap:round;stroke-linejoin:miter;stroke-miterlimit:4;stroke-dasharray:none;stroke-dashoffset:0;stroke-opacity:1"
             sodipodi:type="arc" />
          <path
             style="font-size:24px;font-style:normal;font-weight:normal;fill:#000000;fill-opacity:1;stroke:none;stroke-width:1px;stroke-linecap:butt;stroke-linejoin:miter;stroke-opacity:1;font-family:Bitstream Vera Sans"
             d="M -485.15625,13.487175 L -482.94141,13.299675 C -482.77735,14.377804 -482.39649,15.18835 -481.79883,15.731316 C -481.20118,16.274286 -480.48047,16.54577 -479.63672,16.545769 C -478.6211,16.54577 -477.76173,16.162958 -477.05859,15.397331 C -476.35548,14.63171 -476.00392,13.616086 -476.00391,12.350456 C -476.00392,11.147338 -476.34181,10.19812 -477.01758,9.5028 C -477.69337,8.8074967 -478.57813,8.4598408 -479.67188,8.4598312 C -480.35157,8.4598408 -480.96485,8.6141375 -481.51172,8.9227219 C -482.0586,9.2313244 -482.48828,9.6317146 -482.80078,10.123894 L -484.78125,9.8660812 L -483.11719,1.0418625 L -474.57422,1.0418625 L -474.57422,3.0574875 L -481.42969,3.0574875 L -482.35547,7.674675 C -481.32422,6.955936 -480.24219,6.5965614 -479.10938,6.59655 C -477.60938,6.5965614 -476.34376,7.1160921 -475.3125,8.1551437 C -474.28126,9.194215 -473.76564,10.530151 -473.76562,12.162956 C -473.76564,13.717648 -474.21876,15.061397 -475.125,16.194206 C -476.22657,17.584832 -477.73048,18.280143 -479.63672,18.280144 C -481.19922,18.280143 -482.47461,17.842644 -483.46289,16.967644 C -484.45117,16.092646 -485.01563,14.932491 -485.15625,13.487175 L -485.15625,13.487175 z"
             id="text9425" />
        </g>
        <path
           style="fill:none;fill-rule:evenodd;stroke:#000000;stroke-width:4.01437235;stroke-linecap:round;stroke-linejoin:miter;stroke-miterlimit:4;stroke-dasharray:none;stroke-opacity:1"
           d="M -440.54831,458.96916 L -378.71675,398.29862"
           id="path9429"
           sodipodi:nodetypes="cc" />
        <path
           style="fill:none;fill-rule:evenodd;stroke:#000000;stroke-width:4.01437235;stroke-linecap:round;stroke-linejoin:miter;stroke-miterlimit:4;stroke-dasharray:none;stroke-opacity:1"
           d="M -445.51583,524.25672 L -376.29388,589.22081"
           id="path9431"
           sodipodi:nodetypes="cc" />
        <path
           style="fill:none;fill-rule:evenodd;stroke:#000000;stroke-width:4.01437235;stroke-linecap:round;stroke-linejoin:miter;stroke-miterlimit:4;stroke-dasharray:none;stroke-opacity:1"
           d="M -305.71529,-49.493277 L -267.74914,-77.858852"
           id="path9449"
           sodipodi:nodetypes="cc" />
        <g
           id="g14097"
           transform="translate(619.42553,107.48023)">
          <path
             transform="matrix(2.0071862,0,0,2.0071862,147.20469,-102.99871)"
             sodipodi:type="arc"
             style="fill:#ffffff;fill-opacity:1;fill-rule:evenodd;stroke:#000000;stroke-width:2;stroke-linecap:round;stroke-linejoin:miter;stroke-miterlimit:4;stroke-dasharray:none;stroke-dashoffset:0;stroke-opacity:1"
             id="path2481"
             sodipodi:cx="-479.5"
             sodipodi:cy="9.362174"
             sodipodi:rx="14"
             sodipodi:ry="14"
             d="M -465.5,9.362174 A 14,14 0 1 1 -493.5,9.362174 A 14,14 0 1 1 -465.5,9.362174 z" />
          <path
             id="text2485"
             d="M -804.53442,-93.909698 L -808.78293,-93.577412 C -809.16271,-95.254637 -809.70069,-96.473018 -810.39689,-97.232558 C -811.552,-98.450909 -812.97608,-99.060099 -814.66914,-99.060131 C -816.02994,-99.060099 -817.22459,-98.680344 -818.25308,-97.920864 C -819.59806,-96.9398 -820.65821,-95.507807 -821.43354,-93.624881 C -822.20888,-91.741903 -822.61237,-89.059883 -822.64401,-85.578813 C -821.61551,-87.145284 -820.35757,-88.308284 -818.87019,-89.067816 C -817.38282,-89.827305 -815.82424,-90.20706 -814.19445,-90.207082 C -811.3463,-90.20706 -808.9214,-89.158777 -806.91976,-87.062232 C -804.91815,-84.965649 -803.91734,-82.255938 -803.91732,-78.933093 C -803.91734,-76.74949 -804.38808,-74.720174 -805.32953,-72.845138 C -806.27103,-70.970092 -807.56457,-69.534144 -809.21016,-68.537288 C -810.85578,-67.54043 -812.72291,-67.042001 -814.81155,-67.042 C -818.37177,-67.042001 -821.27531,-68.351365 -823.52219,-70.970096 C -825.76908,-73.58882 -826.89252,-77.904578 -826.89252,-83.917383 C -826.89252,-90.642196 -825.65041,-95.531542 -823.16617,-98.585436 C -820.99841,-101.24369 -818.07904,-102.57283 -814.40806,-102.57287 C -811.67067,-102.57283 -809.42774,-101.80541 -807.67927,-100.2706 C -805.93083,-98.735725 -804.88255,-96.615426 -804.53442,-93.909698 L -804.53442,-93.909698 z M -821.97943,-78.909358 C -821.97944,-77.437796 -821.66693,-76.029537 -821.04191,-74.684579 C -820.41691,-73.339606 -819.54268,-72.315058 -818.41923,-71.610933 C -817.29579,-70.9068 -816.11697,-70.554735 -814.88275,-70.554738 C -813.07893,-70.554735 -811.52826,-71.282599 -810.23075,-72.738332 C -808.93327,-74.194055 -808.28452,-76.171946 -808.2845,-78.672011 C -808.28452,-81.077115 -808.92536,-82.971935 -810.20702,-84.356475 C -811.48871,-85.740982 -813.10267,-86.433244 -815.0489,-86.433262 C -816.97933,-86.433244 -818.61703,-85.740982 -819.96198,-84.356475 C -821.30696,-82.971935 -821.97944,-81.156231 -821.97943,-78.909358 L -821.97943,-78.909358 z"
             style="font-size:48.60869598px;font-style:normal;font-weight:normal;fill:#000000;fill-opacity:1;stroke:none;stroke-width:1px;stroke-linecap:butt;stroke-linejoin:miter;stroke-opacity:1;font-family:Bitstream Vera Sans" />
        </g>
        <path
           sodipodi:nodetypes="cc"
           id="path2489"
           d="M -682.71529,70.506723 L -705.74914,35.798002"
           style="fill:none;fill-rule:evenodd;stroke:#000000;stroke-width:4.01437235;stroke-linecap:round;stroke-linejoin:miter;stroke-miterlimit:4;stroke-dasharray:none;stroke-opacity:1" />
        <g
           id="g14130">
          <path
             d="M -465.5,9.362174 A 14,14 0 1 1 -493.5,9.362174 A 14,14 0 1 1 -465.5,9.362174 z"
             sodipodi:ry="14"
             sodipodi:rx="14"
             sodipodi:cy="9.362174"
             sodipodi:cx="-479.5"
             id="path2491"
             style="fill:#ffffff;fill-opacity:1;fill-rule:evenodd;stroke:#000000;stroke-width:2;stroke-linecap:round;stroke-linejoin:miter;stroke-miterlimit:4;stroke-dasharray:none;stroke-dashoffset:0;stroke-opacity:1"
             sodipodi:type="arc"
             transform="matrix(2.0071862,0,0,2.0071862,739.10332,224.22164)" />
          <path
             id="text2493"
             d="M -233.51927,230.34696 L -233.51927,226.24086 L -210.99502,226.24086 L -210.99502,229.56372 C -213.21028,231.9214 -215.40574,235.05438 -217.5814,238.96267 C -219.7571,242.871 -221.43831,246.89007 -222.62503,251.0199 C -223.47949,253.93137 -224.02539,257.11973 -224.26273,260.58499 L -228.65365,260.58499 C -228.60619,257.84759 -228.0682,254.54056 -227.03969,250.66388 C -226.01119,246.78722 -224.53569,243.04901 -222.61316,239.44923 C -220.69067,235.84949 -218.64553,232.8154 -216.47774,230.34696 L -233.51927,230.34696 z"
             style="font-size:48.60869598px;font-style:normal;font-weight:normal;fill:#000000;fill-opacity:1;stroke:none;stroke-width:1px;stroke-linecap:butt;stroke-linejoin:miter;stroke-opacity:1;font-family:Bitstream Vera Sans" />
        </g>
        <path
           style="fill:none;fill-rule:evenodd;stroke:#000000;stroke-width:4.01437235;stroke-linecap:round;stroke-linejoin:miter;stroke-miterlimit:4;stroke-dasharray:none;stroke-opacity:1"
           d="M -237.76666,-90.07403 L -188.31523,-67.937805"
           id="path14101"
           sodipodi:nodetypes="cc" />
        <path
           sodipodi:nodetypes="cc"
           id="path9451"
           d="M -243.49458,-107.47605 L -218.25635,-136.75404"
           style="fill:none;fill-rule:evenodd;stroke:#000000;stroke-width:4.01437235;stroke-linecap:round;stroke-linejoin:miter;stroke-miterlimit:4;stroke-dasharray:none;stroke-opacity:1" />
        <path
           sodipodi:nodetypes="cc"
           id="path14116"
           d="M -247.66615,-50.47605 L -222.25636,-8.5408354"
           style="fill:none;fill-rule:evenodd;stroke:#000000;stroke-width:4.01437235;stroke-linecap:round;stroke-linejoin:miter;stroke-miterlimit:4;stroke-dasharray:none;stroke-opacity:1" />
        <g
           id="g14126"
           transform="translate(7.0710678,1.4142136)">
          <path
             transform="matrix(2.0071862,0,0,2.0071862,489.10332,469.78156)"
             sodipodi:type="arc"
             style="fill:#ffffff;fill-opacity:1;fill-rule:evenodd;stroke:#000000;stroke-width:2;stroke-linecap:round;stroke-linejoin:miter;stroke-miterlimit:4;stroke-dasharray:none;stroke-dashoffset:0;stroke-opacity:1"
             id="path14118"
             sodipodi:cx="-479.5"
             sodipodi:cy="9.362174"
             sodipodi:rx="14"
             sodipodi:ry="14"
             d="M -465.5,9.362174 A 14,14 0 1 1 -493.5,9.362174 A 14,14 0 1 1 -465.5,9.362174 z" />
          <path
             id="text14120"
             d="M -478.2902,487.2758 C -480.0624,486.62707 -481.37572,485.70142 -482.23017,484.49884 C -483.08462,483.2963 -483.51185,481.8564 -483.51184,480.17912 C -483.51185,477.64745 -482.60202,475.51923 -480.78235,473.79448 C -478.9627,472.06979 -476.54176,471.20743 -473.51953,471.2074 C -470.4815,471.20743 -468.03683,472.08957 -466.1855,473.85382 C -464.33422,475.61813 -463.40856,477.76612 -463.40854,480.29779 C -463.40856,481.91178 -463.83183,483.31608 -464.67835,484.5107 C -465.52491,485.70537 -466.81053,486.62707 -468.53524,487.2758 C -466.39913,487.97204 -464.77331,489.09548 -463.65775,490.64613 C -462.54225,492.19681 -461.98448,494.04812 -461.98446,496.20005 C -461.98448,499.17481 -463.03672,501.67486 -465.14117,503.70022 C -467.24567,505.72558 -470.01472,506.73826 -473.44832,506.73827 C -476.88196,506.73826 -479.651,505.72163 -481.75547,503.68835 C -483.85995,501.65509 -484.91219,499.11943 -484.91219,496.08138 C -484.91219,493.81868 -484.3386,491.92386 -483.19142,490.39691 C -482.04425,488.87 -480.41051,487.82963 -478.2902,487.2758 L -478.2902,487.2758 z M -479.14465,480.03671 C -479.14466,481.68234 -478.61459,483.02731 -477.55443,484.07161 C -476.49429,485.11596 -475.11768,485.63812 -473.42459,485.6381 C -471.779,485.63812 -470.43007,485.11992 -469.37782,484.08348 C -468.3256,483.04709 -467.79948,481.77728 -467.79946,480.27406 C -467.79948,478.70759 -468.34142,477.39032 -469.42529,476.32223 C -470.50919,475.2542 -471.85811,474.72017 -473.47206,474.72014 C -475.10185,474.72017 -476.45473,475.24233 -477.53069,476.28663 C -478.60668,477.33098 -479.14466,478.58101 -479.14465,480.03671 L -479.14465,480.03671 z M -480.52127,496.10511 C -480.52127,497.3235 -480.2325,498.50233 -479.65495,499.64159 C -479.07741,500.78086 -478.21901,501.663 -477.07973,502.28801 C -475.94048,502.91302 -474.71419,503.22553 -473.40085,503.22553 C -471.35968,503.22553 -469.67452,502.56887 -468.34536,501.25555 C -467.01624,499.94223 -466.35166,498.27289 -466.35164,496.24752 C -466.35166,494.19052 -467.03601,492.48954 -468.4047,491.14456 C -469.77342,489.79961 -471.48627,489.12712 -473.54326,489.12711 C -475.55281,489.12712 -477.2182,489.7917 -478.53942,491.12082 C -479.86066,492.44998 -480.52127,494.11141 -480.52127,496.10511 L -480.52127,496.10511 z"
             style="font-size:48.60869598px;font-style:normal;font-weight:normal;fill:#000000;fill-opacity:1;stroke:none;stroke-width:1px;stroke-linecap:butt;stroke-linejoin:miter;stroke-opacity:1;font-family:Bitstream Vera Sans" />
        </g>
      </g>
    </g>
  </g>
</svg>
